<svg width="50" height="34" viewBox="0 0 50 34" fill="none" xmlns="http://www.w3.org/2000/svg">
<path fill-rule="evenodd" clip-rule="evenodd" d="M0 33.0537V0.202148H15.1867C20.0647 0.202148 24.0191 4.15655 24.0191 9.03454C24.0191 12.1343 23.066 14.0544 19.5711 16.0242C23.7532 17.9298 24.9147 20.5707 24.9147 24.2545C24.9147 29.2379 20.4877 33.0537 15.5044 33.0537H0ZM6.42635 5.64015V13.5397H13.9477C13.9477 13.5397 17.6034 13.5397 17.6034 9.58994C17.6034 5.64015 13.9477 5.64015 13.9477 5.64015H6.42635ZM6.42635 27.49V18.9602H14.494C15.7966 18.9602 18.5278 19.6325 18.5278 23.6663C18.5278 26.658 15.8386 27.462 14.494 27.49H6.42635Z" fill="white"/>
<path fill-rule="evenodd" clip-rule="evenodd" d="M38.6549 9.25378C34.0328 9.25378 27.1837 12.5733 27.1837 21.3973C27.1837 26.7703 30.125 33.6668 38.949 33.6668C46.0082 33.6668 49.2577 28.4845 50 25.8933H43.361C43.0249 27.0698 41.7223 28.3724 38.949 28.3724C34.9152 28.3724 33.4866 24.9268 33.2765 23.2041H50V21.3973C50 12.5733 43.277 9.25378 38.6549 9.25378ZM38.6549 14.2961C34.89 14.2961 33.5006 17.4055 33.2765 18.9602H43.361C43.361 17.4055 42.4198 14.2961 38.6549 14.2961Z" fill="white"/>
<path d="M30.6293 2.06854V6.14438H46.4704V2.06854H30.6293Z" fill="white"/>
</svg>
