<svg width="42" height="35" viewBox="0 0 42 35" fill="none" xmlns="http://www.w3.org/2000/svg">
<mask id="path-1-inside-1_401_130" fill="white">
<path fill-rule="evenodd" clip-rule="evenodd" d="M40.23 0.666504H1.76925C0.792089 0.666504 0 1.4671 0 2.45476V32.8783C0 33.8659 0.792089 34.6665 1.76925 34.6665H40.2308C41.2079 34.6665 42 33.8659 42 32.8783V2.45476C41.9993 1.4671 41.2072 0.666504 40.23 0.666504ZM35.8691 4.24301L21 18.8408L6.13018 4.24301H35.8691ZM3.5385 6.68446V31.09H38.4615V6.68446L21.6752 22.0485C21.293 22.3983 20.707 22.3983 20.3248 22.0485L3.5385 6.68446Z"/>
</mask>
<path fill-rule="evenodd" clip-rule="evenodd" d="M40.23 0.666504H1.76925C0.792089 0.666504 0 1.4671 0 2.45476V32.8783C0 33.8659 0.792089 34.6665 1.76925 34.6665H40.2308C41.2079 34.6665 42 33.8659 42 32.8783V2.45476C41.9993 1.4671 41.2072 0.666504 40.23 0.666504ZM35.8691 4.24301L21 18.8408L6.13018 4.24301H35.8691ZM3.5385 6.68446V31.09H38.4615V6.68446L21.6752 22.0485C21.293 22.3983 20.707 22.3983 20.3248 22.0485L3.5385 6.68446Z" fill="white"/>
<path d="M42 2.45476L47 2.45476L47 2.45101L42 2.45476ZM35.8691 4.24301L39.3719 7.81094L48.0991 -0.756987H35.8691V4.24301ZM21 18.8408L17.4973 22.4089L21.0001 25.8476L24.5028 22.4088L21 18.8408ZM6.13018 4.24301V-0.756987H-6.10022L2.62743 7.81103L6.13018 4.24301ZM3.5385 31.09H-1.4615V36.09H3.5385V31.09ZM3.5385 6.68446L6.91432 2.99613L-1.4615 -4.67003L-1.4615 6.68446H3.5385ZM38.4615 6.68446H43.4615V-4.67003L35.0857 2.99613L38.4615 6.68446ZM38.4615 31.09V36.09H43.4615V31.09H38.4615ZM20.3248 22.0485L16.949 25.7369L20.3248 22.0485ZM40.23 -4.3335H1.76925V5.6665H40.23V-4.3335ZM1.76925 -4.3335C-2.01958 -4.3335 -5 -1.24381 -5 2.45476H5C5 4.17802 3.60375 5.6665 1.76925 5.6665V-4.3335ZM-5 2.45476V32.8783H5V2.45476H-5ZM-5 32.8783C-5 36.5768 -2.01957 39.6665 1.76925 39.6665V29.6665C3.60375 29.6665 5 31.155 5 32.8783H-5ZM1.76925 39.6665H40.2308V29.6665H1.76925V39.6665ZM40.2308 39.6665C44.0196 39.6665 47 36.5768 47 32.8783H37C37 31.155 38.3963 29.6665 40.2308 29.6665V39.6665ZM47 32.8783V2.45476H37V32.8783H47ZM47 2.45101C46.9972 -1.24394 44.0195 -4.3335 40.23 -4.3335V5.6665C38.3948 5.6665 37.0013 4.17814 37 2.45851L47 2.45101ZM32.3662 0.675085L17.4972 15.2729L24.5028 22.4088L39.3719 7.81094L32.3662 0.675085ZM24.5028 15.2728L9.63294 0.674998L2.62743 7.81103L17.4973 22.4089L24.5028 15.2728ZM6.13018 9.24301H35.8691V-0.756987H6.13018V9.24301ZM8.5385 31.09V6.68446H-1.4615V31.09H8.5385ZM0.162667 10.3728L16.949 25.7369L23.7007 18.3602L6.91432 2.99613L0.162667 10.3728ZM33.4615 6.68446V31.09H43.4615V6.68446H33.4615ZM38.4615 26.09H3.5385V36.09H38.4615V26.09ZM25.051 25.7369L41.8373 10.3728L35.0857 2.99613L18.2993 18.3602L25.051 25.7369ZM16.949 25.7369C19.242 27.8355 22.758 27.8355 25.051 25.7369L18.2993 18.3602C19.828 16.9611 22.172 16.9611 23.7007 18.3602L16.949 25.7369Z" fill="white" mask="url(#path-1-inside-1_401_130)"/>
</svg>
