<svg width="50" height="47" viewBox="0 0 50 47" fill="none" xmlns="http://www.w3.org/2000/svg">
<path d="M12.0619 5.6405C12.0619 8.75566 9.36172 11.281 6.03093 11.281C2.70014 11.281 0 8.75566 0 5.6405C0 2.52534 2.70014 0 6.03093 0C9.36172 0 12.0619 2.52534 12.0619 5.6405Z" fill="white"/>
<path d="M0.824742 15.427H11.134V46.6667H0.824742V15.427Z" fill="white"/>
<path d="M27.732 15.427H17.4227V46.6667H27.732C27.732 46.6667 27.732 36.832 27.732 30.6829C27.732 26.9921 28.9922 23.2851 34.0206 23.2851C39.7034 23.2851 39.6692 28.1151 39.6427 31.857C39.608 36.7481 39.6907 41.7395 39.6907 46.6667H50V30.1791C49.9127 19.6513 47.1694 14.8003 38.1443 14.8003C32.7847 14.8003 29.4624 17.2335 27.732 19.435V15.427Z" fill="white"/>
</svg>
