<svg width="457" height="458" viewBox="0 0 457 458" fill="none" xmlns="http://www.w3.org/2000/svg">
<path d="M124.546 118.548C128.474 79.3974 139.842 54.2483 150.858 49.8812C153.162 50.4299 156.235 51.8563 160.031 54.1605C163.849 56.3331 167.097 59.4054 169.819 63.3336C154.567 78.5855 140.653 127.852 140.653 131.868C140.653 134.326 140.588 136.016 140.456 136.959C140.456 138.057 139.907 138.715 139.447 138.583C125.358 134.611 124.019 123.858 124.546 118.504V118.548ZM159.877 21.8354C160.294 19.6628 160.755 17.3366 161.304 14.9007C161.852 12.4429 162.533 9.94114 163.345 7.35161C164.157 4.63042 164.969 2.17257 165.803 0C167.427 0 169.402 0.482792 171.728 1.42643C174.186 2.2384 176.622 3.40149 179.079 4.89376C181.537 6.25436 183.776 7.81246 185.817 9.59002C187.857 11.214 189.416 12.794 190.513 14.2863C189.021 15.7785 187.045 17.8853 184.588 20.6065C182.13 23.196 179.76 25.983 177.455 28.9676C175.151 31.8204 173.044 34.5416 171.135 37.1311C169.226 39.7207 167.997 41.5421 167.47 42.6394C157.902 41.169 159 26.005 159.921 21.8354H159.877ZM169.599 132.11C169.599 129.937 171.508 126.47 175.305 121.708C179.123 116.814 184.149 111.306 190.403 105.183C196.789 98.9286 204.075 92.3889 212.238 85.6079C220.534 78.6732 229.092 72.0239 237.936 65.6378C232.23 64.4089 227.688 63.5311 224.286 62.9825C221.016 62.4339 218.361 62.1705 216.32 62.1705C212.37 62.1705 208.837 62.7191 205.721 63.7944C202.605 64.8698 199.532 66.6473 196.548 69.1052C190.293 63.6628 187.155 57.4084 187.155 50.3421C187.155 48.1695 187.221 46.8748 187.353 46.4578C189.657 44.1536 192.378 42.376 195.516 41.1471C198.786 39.9182 204.382 39.3037 207.915 39.3037C211.734 39.3037 213.402 39.9182 217.352 41.1471C221.302 42.376 225.164 43.7366 228.983 45.2289C232.801 46.5895 236.334 47.8842 239.582 49.1132C242.984 50.3421 245.968 50.9566 248.558 50.9566C250.05 50.9566 251.696 50.759 253.451 50.3421C255.361 49.9251 256.919 49.3985 258.148 48.7182C259.377 49.6618 260.452 51.571 261.417 54.4239C262.515 57.2767 263.041 60.0638 263.041 62.785C258.828 64.4089 253.715 67.2837 247.746 71.3436C241.908 75.4254 235.917 80.1216 229.795 85.4104C223.672 90.7211 217.681 96.361 211.843 102.352C206.138 108.343 201.376 113.983 197.557 119.294C200.41 120.523 204.294 121.137 209.188 121.137C212.326 121.137 215.508 120.874 218.778 120.325C222.048 119.776 225.164 119.03 228.171 118.087C231.309 117.143 234.162 116.046 236.729 114.817C239.319 113.456 241.491 112.03 243.247 110.538C249.633 114.619 252.837 120.61 252.837 128.489C252.837 129.586 252.771 130.464 252.639 131.144C252.639 131.824 252.574 132.636 252.442 133.602C246.188 137.552 239.385 139.527 232.033 139.527C228.368 139.527 224.681 139.11 221.016 138.298C217.352 137.618 213.731 136.872 210.198 136.06C206.796 135.248 203.526 134.502 200.41 133.821C197.425 133.009 194.638 132.592 192.049 132.592C185.531 132.592 180.221 135.643 176.139 141.765C174.383 141.085 172.869 139.856 171.662 138.101C170.565 136.345 169.884 134.37 169.621 132.197L169.599 132.11ZM265.828 132.11C265.828 129.937 267.738 126.47 271.534 121.708C275.353 116.814 280.378 111.306 286.632 105.183C293.018 98.9286 300.304 92.3889 308.468 85.6079C316.763 78.6732 325.322 72.0239 334.165 65.6378C328.46 64.4089 323.917 63.5311 320.516 62.9825C317.246 62.4339 314.59 62.1705 312.55 62.1705C308.599 62.1705 305.066 62.7191 301.95 63.7944C298.812 64.8917 295.762 66.6473 292.777 69.1052C286.523 63.6628 283.384 57.4084 283.384 50.3421C283.384 48.1695 283.45 46.8748 283.582 46.4578C285.886 44.1536 288.607 42.376 291.746 41.1471C295.015 39.9182 300.611 39.3037 304.145 39.3037C307.963 39.3037 309.631 39.9182 313.581 41.1471C317.531 42.376 321.393 43.7366 325.212 45.2289C329.03 46.5895 332.563 47.8842 335.811 49.1132C339.213 50.3421 342.197 50.9566 344.787 50.9566C346.279 50.9566 347.925 50.759 349.681 50.3421C351.59 49.9251 353.148 49.3985 354.377 48.7182C355.606 49.6618 356.681 51.571 357.647 54.4239C358.744 57.2767 359.271 60.0638 359.271 62.785C355.057 64.4089 349.944 67.2837 343.975 71.3436C338.138 75.4254 332.147 80.1216 326.024 85.4104C319.901 90.7211 313.91 96.361 308.073 102.352C302.367 108.343 297.605 113.983 293.786 119.294C296.639 120.523 300.524 121.137 305.417 121.137C308.556 121.137 311.738 120.874 315.007 120.325C318.277 119.776 321.393 119.03 324.4 118.087C327.538 117.143 330.391 116.046 332.958 114.817C335.548 113.456 337.721 112.03 339.476 110.538C345.862 114.619 349.066 120.61 349.066 128.489C349.066 129.586 349 130.464 348.869 131.144C348.869 131.824 348.803 132.636 348.671 133.602C342.417 137.552 335.614 139.527 328.262 139.527C324.597 139.527 320.911 139.11 317.246 138.298C313.581 137.618 309.96 136.872 306.427 136.06C303.025 135.248 299.756 134.502 296.639 133.821C293.655 133.009 290.868 132.592 288.278 132.592C281.761 132.592 276.45 135.643 272.368 141.765C270.612 141.085 269.098 139.856 267.891 138.101C266.794 136.345 266.114 134.37 265.85 132.197L265.828 132.11ZM440.972 52.5366C442.333 52.5366 443.891 52.7999 445.669 53.3486C447.578 53.7655 449.268 54.358 450.76 55.192C452.252 55.8723 453.481 56.6184 454.425 57.4304C455.522 58.2423 456.049 58.9885 456.049 59.6688C453.327 65.3745 450.804 71.168 448.5 77.0054C446.195 82.7111 444.22 88.2194 442.574 93.5301C440.95 98.8408 439.656 103.8 438.69 108.431C437.878 113.061 437.461 117.077 437.461 120.457C437.461 124.275 437.878 127.457 438.69 130.047C439.502 132.505 440.863 134.26 442.772 135.357C441.148 136.455 439.041 137.333 436.452 138.013C433.862 138.693 431.558 139.022 429.517 139.022C422.165 139.022 418.501 133.997 418.501 123.924C418.501 116.177 421.09 105.556 426.247 92.1036C423.526 98.358 420.41 104.283 416.855 109.857C413.322 115.3 409.723 120.128 406.036 124.341C402.371 128.554 398.618 132.022 394.822 134.743C391.157 137.333 387.755 138.891 384.617 139.439C379.592 139.176 375.51 136.784 372.372 132.307C369.234 127.677 367.676 121.839 367.676 114.773C367.676 107.158 369.3 99.1261 372.569 90.6992C375.839 82.2722 379.987 74.4378 385.012 67.2398C390.191 60.0418 395.765 54.0508 401.735 49.2887C407.726 44.395 413.497 41.8054 419.071 41.5421C436.869 40.5326 440.731 50.4738 440.907 52.5586C441.082 54.797 418.566 59.186 401.735 81.9431C397.104 88.1974 393.308 94.9346 390.301 102.133C385.78 112.995 383.674 125.438 388.677 127.216C392.627 126.404 397.17 123.068 402.349 117.209C407.528 111.218 413.782 102.045 421.112 89.6677C422.473 87.2099 423.965 84.4887 425.611 81.5042C427.388 78.5196 429.144 75.3815 430.921 72.1116C432.699 68.8418 434.389 65.5939 436.013 62.3241C437.79 58.9226 439.414 55.6528 440.907 52.5366H440.972Z" fill="white"/>
<path d="M5.43736 205.292C4.20559 203.944 2.98848 201.441 2.38726 199.472C1.8447 197.68 1.43411 195.547 1.1555 193.074C1.02353 190.601 0.950195 187.773 0.950195 184.603C0.950195 181.716 1.43411 177.717 2.38726 172.623C3.34042 167.662 4.63084 162.019 6.2732 155.696C8.04754 149.358 10.1591 142.545 12.608 135.259C15.0569 127.825 17.7844 120.317 20.7905 112.749C24.4711 103.257 27.6678 95.0523 30.3953 88.1809C33.1228 81.1614 35.3664 75.1044 37.1407 70.0101C39.6629 62.7832 53.667 31.2841 55.1333 29.122C56.5997 26.9598 57.9928 25.2716 59.2246 24.1609C63.9904 24.8421 68.4922 26.0861 72.7154 27.878C76.9386 29.6699 79.5341 31.3878 80.4873 33.0464C78.581 34.8383 76.396 37.652 73.9472 41.5172C71.4983 45.2343 69.1081 49.3661 66.7912 53.9125C64.4743 58.3108 62.3627 62.8572 60.4564 67.5369C58.55 72.2166 57.113 76.3484 56.1598 79.9322C57.5236 77.5923 59.2979 75.0452 61.4828 72.2907C63.6677 69.5362 66.9965 65.745 71.4983 60.932C76.5427 55.7044 81.2498 51.7059 85.605 48.9514C90.1068 46.0636 93.9927 44.6123 97.2628 44.6123C102.439 44.6123 106.662 46.0636 109.947 48.9514C113.349 51.8392 115.065 55.5563 115.065 60.1027C115.065 70.0101 113.422 79.8582 110.152 89.6322C106.882 99.273 102.175 108.01 96.0457 115.859C93.7288 118.895 91.0013 121.783 87.8632 124.537C84.7251 127.292 81.4551 129.765 78.053 131.972C74.651 134.03 71.3076 135.689 68.0376 136.933C64.7675 138.177 61.8348 138.784 59.2392 138.784C56.7904 138.784 54.6055 138.295 52.6992 137.333C50.9248 136.237 49.693 134.919 49.0185 133.408C54.3415 130.239 59.5179 125.841 64.5623 120.198C69.6066 114.556 74.2404 108.084 78.4636 100.784C82.8188 93.3493 86.5728 85.3672 89.7109 76.8223C92.0277 70.7949 93.9194 64.6936 95.4151 58.533C96.1483 55.5119 92.9076 53.0832 90.2974 54.727C87.6872 56.3708 85.2677 58.0887 82.9655 59.8806C78.8742 63.0498 74.783 67.2407 70.6918 72.4832C65.7794 78.5401 61.8934 83.4272 59.034 87.1443C56.1745 90.8614 53.7843 94.0305 51.878 96.6369C50.1036 99.2582 48.6079 101.731 47.3761 104.071C46.291 106.278 45.0593 109.032 43.6955 112.335C41.7892 116.733 39.531 122.597 36.9501 129.883C34.5012 137.036 31.9057 145.093 29.1782 154.037C26.5827 162.982 23.9285 172.489 21.2011 182.53C18.6055 192.719 16.0834 202.833 13.6345 212.889L7.38766 207.365" fill="white"/>
<path d="M61.6085 236.721C60.599 235.492 59.6773 232.946 58.8654 229.062C58.0534 225.024 57.6584 221.579 57.6365 218.726C57.6365 218.682 57.6803 218.66 57.7023 218.66C62.9691 219.077 68.0604 219.472 72.9322 219.889C77.826 220.086 82.3247 220.306 86.4065 220.503C89.4569 214.381 92.7267 208.368 96.194 202.442C99.8589 196.32 103.326 190.812 106.596 185.918C110.063 180.827 113.223 176.525 116.076 173.058C119.127 169.591 121.475 167.352 123.121 166.321C125.162 166.321 127.707 166.738 130.78 167.55C134.049 168.164 137.297 169.086 140.567 170.293C143.837 171.302 146.799 172.443 149.433 173.65C152.088 174.879 153.932 176.108 154.941 177.315C148.818 185.062 143.508 192.304 139.031 199.041C134.752 205.559 130.077 213.086 124.986 221.622C124.986 221.644 124.986 221.688 125.03 221.688C129.09 221.688 133.15 221.579 137.187 221.381C141.467 221.184 145.746 220.876 150.025 220.459C151.035 221.491 151.847 222.808 152.461 224.431C153.076 225.858 153.383 227.394 153.383 229.018C143.398 232.683 131.262 234.724 116.998 235.141C116.998 235.141 116.976 235.141 116.954 235.163C111.863 244.95 107.276 254.738 103.195 264.525C99.3102 274.115 95.9526 283.398 93.0998 292.374C90.4444 301.349 88.3157 309.82 86.6698 317.764C85.2434 325.73 84.5192 332.862 84.5192 339.182C84.5192 348.158 84.3875 363.212 112.06 349.584C116.405 347.434 120.619 345.525 124.306 342.891C127.136 341.268 126.549 340.883 127.971 343.322C129.331 345.657 129.163 345.633 128.234 346.754C126.961 348.29 124.745 350.001 122.462 352.042C81.0958 389.042 48.5073 358.757 53.9277 317.15C54.9153 309.535 57.2853 301.437 59.7432 292.659C62.201 283.881 65.0539 274.708 68.3018 265.118C71.5716 255.528 75.1267 246.047 79.011 236.677H61.6085V236.721Z" fill="#569A4E"/>
<path d="M159.374 344.932C152.439 335.957 148.972 324.523 148.972 310.654C148.972 302.491 150.201 294.02 152.637 285.264C155.094 276.486 158.562 268.015 163.039 259.873C167.537 251.512 172.826 243.656 178.949 236.304C185.071 228.952 191.699 222.632 198.831 217.322C207.126 211.155 215.005 206.963 222.51 205.339C220.754 205.669 225.165 204.769 222.51 205.339C257.622 198.756 271.338 235.777 271.338 254.957C271.338 267.817 269.187 280.041 264.908 291.672C260.826 303.105 255.01 313.507 247.461 322.878C240.11 332.27 231.244 340.214 220.842 346.754C187.683 369.445 170.983 360.009 159.33 344.91L159.374 344.932ZM202.825 263.845C199.358 268.541 196.088 273.633 193.037 279.141C189.987 284.649 187.332 290.267 185.071 295.973C182.833 301.481 181.099 306.88 179.87 312.19C178.641 317.282 178.027 321.89 178.027 325.95C178.027 330.844 178.839 335.54 180.485 340.017V340.083C182.262 344.888 187.507 347.522 192.357 345.942C199.072 343.747 205.327 340.565 211.076 336.352C218.823 330.646 225.45 323.602 230.959 315.241C236.664 306.88 241.053 297.399 244.126 286.778C247.396 276.178 249.019 264.855 249.019 252.807C249.019 247.496 248.712 243.326 248.098 240.254C247.176 235.668 242.304 232.99 237.981 234.79C231.793 237.379 226.065 240.825 220.864 245.148C213.929 251.073 207.916 257.284 202.803 263.823L202.825 263.845Z" fill="white"/>
<path d="M263.526 445.88C261.682 443.883 259.861 440.174 258.961 437.255C258.149 434.6 257.535 431.44 257.118 427.775C256.92 424.11 256.811 419.919 256.811 415.223C256.811 410.943 257.535 405.018 258.961 397.469C260.388 390.117 262.319 381.756 264.777 372.386C267.432 362.993 270.592 352.898 274.257 342.101C277.922 331.085 282.004 319.959 286.502 308.745C292.011 294.678 296.795 282.52 300.876 272.338C304.958 261.936 308.316 252.96 310.971 245.411C314.746 234.702 335.703 188.025 337.898 184.821C340.092 181.617 342.177 179.115 344.02 177.469C351.153 178.479 357.89 180.322 364.21 182.977C370.53 185.633 374.414 188.178 375.841 190.636C372.988 193.292 369.718 197.461 366.053 203.189C362.388 208.697 358.811 214.82 355.344 221.557C351.877 228.075 348.717 234.812 345.864 241.746C343.011 248.681 340.86 254.804 339.434 260.115C341.475 256.647 344.13 252.873 347.4 248.791C350.67 244.709 355.651 239.091 362.388 231.959C369.938 224.212 376.982 218.287 383.5 214.205C390.237 209.926 396.052 207.775 400.946 207.775C408.693 207.775 415.013 209.926 419.929 214.205C425.02 218.485 427.587 223.993 427.587 230.73C427.587 245.411 425.13 260.005 420.236 274.489C415.342 288.775 408.298 301.722 399.125 313.353C395.657 317.852 391.575 322.131 386.879 326.213C382.183 330.295 377.289 333.96 372.198 337.23C367.107 340.28 362.103 342.738 357.209 344.581C352.316 346.425 347.927 347.324 344.042 347.324C340.378 347.324 337.108 346.6 334.255 345.174C331.6 343.55 329.756 341.597 328.747 339.358C336.713 334.662 344.459 328.144 352.008 319.783C359.558 311.422 366.492 301.832 372.812 291.013C379.33 279.997 384.948 268.168 389.644 255.506C393.112 246.574 395.943 237.533 398.181 228.404C399.278 223.927 394.428 220.328 390.522 222.764C386.616 225.2 382.995 227.745 379.55 230.401C373.427 235.097 367.304 241.308 361.181 249.076C353.83 258.052 348.014 265.294 343.735 270.802C339.456 276.31 335.879 281.006 333.026 284.869C330.371 288.753 328.132 292.418 326.289 295.885C324.665 299.155 322.821 303.237 320.781 308.13C317.928 314.648 314.548 323.338 310.686 334.135C307.021 344.735 303.137 356.673 299.055 369.928C295.171 383.183 291.199 397.271 287.117 412.15C283.232 427.249 279.458 442.237 275.793 457.138L266.444 448.952" fill="#CD232A"/>
</svg>
